HIERARCHY
ROOT Hips
{
    OFFSET   0.000000   0.000000   0.000000
    CHANNELS 6 Xposition Yposition Zposition Zrotation Xrotation Yrotation
    JOINT Chest
    {
        OFFSET   0.000000   8.007230   0.000000
        CHANNELS 3 Zrotation Xrotation Yrotation
        JOINT Chest2
        {
            OFFSET   0.000000  22.077100   0.000000
            CHANNELS 3 Zrotation Xrotation Yrotation
            JOINT Neck
            {
                OFFSET   0.000000  23.254700   0.000000
                CHANNELS 3 Zrotation Xrotation Yrotation
                JOINT Head
                {
                    OFFSET   0.000010  14.370000   1.956610
                    CHANNELS 3 Zrotation Xrotation Yrotation
                    End Site
                    {
                        OFFSET   0.000000  19.566000   0.000000
                    }
                }
            }
            JOINT LeftCollar
            {
                OFFSET   3.911900  19.017000  -0.467063
                CHANNELS 3 Zrotation Xrotation Yrotation
                JOINT LeftShoulder
                {
                    OFFSET  10.383700   0.000000   0.000000
                    CHANNELS 3 Zrotation Xrotation Yrotation
                    JOINT LeftElbow
                    {
                        OFFSET  26.662100   0.001671   0.000522
                        CHANNELS 3 Zrotation Xrotation Yrotation
                        JOINT LeftWrist
                        {
                            OFFSET  28.869000   0.000037  -0.000114
                            CHANNELS 3 Zrotation Xrotation Yrotation
                            JOINT LeftFinger0
                            {
                                OFFSET   2.044650  -2.323450   3.252850
                                CHANNELS 3 Zrotation Xrotation Yrotation
                                JOINT LeftFinger01
                                {
                                    OFFSET   3.088140   0.000000   0.000000
                                    CHANNELS 3 Zrotation Xrotation Yrotation
                                    JOINT LeftFinger02
                                    {
                                        OFFSET   2.639460   0.000000   0.000000
                                        CHANNELS 3 Zrotation Xrotation Yrotation
                                        End Site
                                        {
                                            OFFSET   2.582190   0.000000   0.000000
                                        }
                                    }
                                }
                            }
                            JOINT LeftFinger1
                            {
                                OFFSET   8.364480   0.000000   3.252850
                                CHANNELS 3 Zrotation Xrotation Yrotation
                                JOINT LeftFinger11
                                {
                                    OFFSET   4.646930   0.000000   0.000000
                                    CHANNELS 3 Zrotation Xrotation Yrotation
                                    JOINT LeftFinger12
                                    {
                                        OFFSET   2.323470   0.000000   0.000000
                                        CHANNELS 3 Zrotation Xrotation Yrotation
                                        End Site
                                        {
                                            OFFSET   2.273050   0.000000   0.000000
                                        }
                                    }
                                }
                            }
                            JOINT LeftFinger2
                            {
                                OFFSET   8.364490   0.000016   1.078090
                                CHANNELS 3 Zrotation Xrotation Yrotation
                                JOINT LeftFinger21
                                {
                                    OFFSET   5.111620   0.000000   0.000000
                                    CHANNELS 3 Zrotation Xrotation Yrotation
                                    JOINT LeftFinger22
                                    {
                                        OFFSET   2.788150   0.000013   0.000000
                                        CHANNELS 3 Zrotation Xrotation Yrotation
                                        End Site
                                        {
                                            OFFSET   2.727660   0.000000   0.000000
                                        }
                                    }
                                }
                            }
                            JOINT LeftFinger3
                            {
                                OFFSET   7.899780   0.000016  -1.078090
                                CHANNELS 3 Zrotation Xrotation Yrotation
                                JOINT LeftFinger31
                                {
                                    OFFSET   4.646930   0.000000   0.000000
                                    CHANNELS 3 Zrotation Xrotation Yrotation
                                    JOINT LeftFinger32
                                    {
                                        OFFSET   2.323470   0.000000   0.000000
                                        CHANNELS 3 Zrotation Xrotation Yrotation
                                        End Site
                                        {
                                            OFFSET   2.273050   0.000000   0.000000
                                        }
                                    }
                                }
                            }
                            JOINT LeftFinger4
                            {
                                OFFSET   7.435080   0.000000  -3.252850
                                CHANNELS 3 Zrotation Xrotation Yrotation
                                JOINT LeftFinger41
                                {
                                    OFFSET   3.717550   0.000000   0.000000
                                    CHANNELS 3 Zrotation Xrotation Yrotation
                                    JOINT LeftFinger42
                                    {
                                        OFFSET   1.858760   0.000000   0.000000
                                        CHANNELS 3 Zrotation Xrotation Yrotation
                                        End Site
                                        {
                                            OFFSET   1.818440   0.000000   0.000000
                                        }
                                    }
                                }
                            }
                        }
                    }
                }
            }
            JOINT RightCollar
            {
                OFFSET  -3.911900  19.017000  -0.467064
                CHANNELS 3 Zrotation Xrotation Yrotation
                JOINT RightShoulder
                {
                    OFFSET -10.383700   0.000000   0.000000
                    CHANNELS 3 Zrotation Xrotation Yrotation
                    JOINT RightElbow
                    {
                        OFFSET -26.662100   0.001633   0.000260
                        CHANNELS 3 Zrotation Xrotation Yrotation
                        JOINT RightWrist
                        {
                            OFFSET -28.869000  -0.000045  -0.000080
                            CHANNELS 3 Zrotation Xrotation Yrotation
                            JOINT RightFinger0
                            {
                                OFFSET  -2.044660  -2.323490   3.252850
                                CHANNELS 3 Zrotation Xrotation Yrotation
                                JOINT RightFinger01
                                {
                                    OFFSET  -3.088140   0.000000   0.000000
                                    CHANNELS 3 Zrotation Xrotation Yrotation
                                    JOINT RightFinger02
                                    {
                                        OFFSET  -2.639450   0.000000   0.000000
                                        CHANNELS 3 Zrotation Xrotation Yrotation
                                        End Site
                                        {
                                            OFFSET  -2.582190   0.000000   0.000000
                                        }
                                    }
                                }
                            }
                            JOINT RightFinger1
                            {
                                OFFSET  -8.364480   0.000000   3.252850
                                CHANNELS 3 Zrotation Xrotation Yrotation
                                JOINT RightFinger11
                                {
                                    OFFSET  -4.646920   0.000000   0.000000
                                    CHANNELS 3 Zrotation Xrotation Yrotation
                                    JOINT RightFinger12
                                    {
                                        OFFSET  -2.323470   0.000000   0.000000
                                        CHANNELS 3 Zrotation Xrotation Yrotation
                                        End Site
                                        {
                                            OFFSET  -2.273050   0.000000   0.000000
                                        }
                                    }
                                }
                            }
                            JOINT RightFinger2
                            {
                                OFFSET  -8.364480   0.000000   1.078090
                                CHANNELS 3 Zrotation Xrotation Yrotation
                                JOINT RightFinger21
                                {
                                    OFFSET  -5.111610   0.000000   0.000000
                                    CHANNELS 3 Zrotation Xrotation Yrotation
                                    JOINT RightFinger22
                                    {
                                        OFFSET  -2.788160   0.000000   0.000000
                                        CHANNELS 3 Zrotation Xrotation Yrotation
                                        End Site
                                        {
                                            OFFSET  -2.727660   0.000000   0.000000
                                        }
                                    }
                                }
                            }
                            JOINT RightFinger3
                            {
                                OFFSET  -7.899780   0.000000  -1.078090
                                CHANNELS 3 Zrotation Xrotation Yrotation
                                JOINT RightFinger31
                                {
                                    OFFSET  -4.646930   0.000000   0.000000
                                    CHANNELS 3 Zrotation Xrotation Yrotation
                                    JOINT RightFinger32
                                    {
                                        OFFSET  -2.323470   0.000000   0.000000
                                        CHANNELS 3 Zrotation Xrotation Yrotation
                                        End Site
                                        {
                                            OFFSET  -2.273050   0.000000   0.000000
                                        }
                                    }
                                }
                            }
                            JOINT RightFinger4
                            {
                                OFFSET  -7.435090   0.000000  -3.252850
                                CHANNELS 3 Zrotation Xrotation Yrotation
                                JOINT RightFinger41
                                {
                                    OFFSET  -3.717550   0.000000   0.000000
                                    CHANNELS 3 Zrotation Xrotation Yrotation
                                    JOINT RightFinger42
                                    {
                                        OFFSET  -1.858760   0.000000   0.000000
                                        CHANNELS 3 Zrotation Xrotation Yrotation
                                        End Site
                                        {
                                            OFFSET  -1.818440   0.000000   0.000000
                                        }
                                    }
                                }
                            }
                        }
                    }
                }
            }
        }
    }
    JOINT LeftHip
    {
        OFFSET   9.782990   0.000000   0.000000
        CHANNELS 3 Zrotation Xrotation Yrotation
        JOINT LeftKnee
        {
            OFFSET  -0.000063 -41.789100   0.001657
            CHANNELS 3 Zrotation Xrotation Yrotation
            JOINT LeftAnkle
            {
                OFFSET   0.000078 -41.133200  -0.000113
                CHANNELS 3 Zrotation Xrotation Yrotation
                JOINT LeftToe
                {
                    OFFSET   0.000000  -6.358970  14.674500
                    CHANNELS 3 Zrotation Xrotation Yrotation
                    End Site
                    {
                        OFFSET   0.000000   0.000000   3.913200
                    }
                }
            }
        }
    }
    JOINT RightHip
    {
        OFFSET  -9.782990   0.000000   0.000000
        CHANNELS 3 Zrotation Xrotation Yrotation
        JOINT RightKnee
        {
            OFFSET   0.000053 -41.789200   0.000277
            CHANNELS 3 Zrotation Xrotation Yrotation
            JOINT RightAnkle
            {
                OFFSET   0.000030 -41.133200  -0.000150
                CHANNELS 3 Zrotation Xrotation Yrotation
                JOINT RightToe
                {
                    OFFSET   0.000000  -6.358960  14.674500
                    CHANNELS 3 Zrotation Xrotation Yrotation
                    End Site
                    {
                        OFFSET   0.000000   0.000000   3.913200
                    }
                }
            }
        }
    }
}
MOTION
Frames: 4
Frame Time:   0.016667
  8.365300  88.857100   2.422930 -17.517200 -10.198800 -47.120900  -1.031130  11.150600  -4.401550  -1.202460  22.347200  -8.853650   5.012870   2.527960  -0.221490   8.275870   5.006560  23.503500  -0.209559   0.803473   2.956090 -67.189300  22.552400  -8.053650  -1.715210  -2.920230 -19.115900  12.524300  -4.894880   3.255210  44.008300  40.822200 -68.774600 -33.110700   0.000000   0.000029 -11.555400   0.002063   0.000000 -33.279700   5.519640  -8.345810 -27.558800   0.026382   0.001568 -19.291200   0.015661  -0.006893 -28.585600  -3.085260   5.641130 -39.939800   0.001670   0.001961 -26.599900  -0.005591   0.001052 -28.634100  -3.090540   5.638250 -41.942600  -0.005810   0.001515 -27.933800  -0.004582   0.001134 -35.719800  -3.760020   5.216740 -53.836000  -0.003612   0.001738 -35.854800  -0.002553  -0.001395   6.772360  -1.664330   3.680810  29.465300 -33.704300  -8.821630 -20.653800 -25.163600   0.002225 -68.602500 -79.435200 -54.862200 -45.796200  29.213400  63.321500  11.199100  -0.002793  -0.004653   0.599541  -0.002849  -0.001004   6.009150   1.613430  14.967000   5.089850  -0.003781   0.000845   3.562910   0.000544   0.000466   6.802810   1.431310  11.828900   6.951130  -0.002968   0.002353   4.629450  -0.002400   0.003278   4.459420   0.762416   9.685480   4.524100  -0.001637   0.002063   3.013030  -0.004226   0.001401   7.977120   1.069150   7.589050  12.072300  -0.001551   0.001814   8.040170   0.006889   0.001999  -5.620800  23.405900  13.216300   0.084956   0.994437  25.249000   5.612160  -9.537940  17.584800  -0.000000   0.000000   0.000000   5.694860   5.477690   7.738630  -9.877960  16.904600   6.234230   7.962980  -3.956470  22.733300  -0.000000   0.000000   0.000000
  8.433460  88.867700   2.442190 -17.527700 -10.147400 -47.027500  -0.986916  11.117200  -4.395200  -1.115370  22.277100  -8.849440   4.951670   2.445510  -0.211688   8.176730   4.846880  24.609800  -0.205147   0.826171   3.032760 -67.199700  22.478300  -8.025730  -1.705090  -2.935920 -19.068600  12.566800  -4.990860   3.275570  44.001400  40.776100 -68.628900 -33.099200   0.000000   0.000065 -11.549800   0.002023   0.000000 -33.232300   5.515200  -8.345320 -27.519200   0.027121   0.001575 -19.263500   0.012354  -0.000472 -28.580800  -3.087120   5.644810 -39.857100   0.001665   0.001960 -26.544800  -0.005591   0.001059 -28.633500  -3.092490   5.641880 -41.860900  -0.005793   0.001519 -27.879400  -0.004583   0.001129 -35.666300  -3.760470   5.221600 -53.756400  -0.003612   0.001737 -35.801800  -0.002555  -0.001442   6.741310  -1.622570   3.701170  29.508900 -33.560200  -8.856870 -20.716800 -25.244300   0.001954 -68.765400 -79.527000 -55.026600 -45.748100  29.215100  63.387500  11.257100  -0.003092  -0.004559   0.628571  -0.002965  -0.001010   6.398930   1.739490  15.142900   5.424640  -0.004076   0.000888   3.797270   0.000499   0.000482   7.165610   1.514760  11.871400   7.323070  -0.003093   0.002517   4.877170  -0.002421   0.003392   4.715010   0.810676   9.729960   4.784050  -0.001781   0.002259   3.186160  -0.004177   0.001522   8.190220   1.108110   7.652680  12.396600  -0.001499   0.001985   8.256150   0.006931   0.002162  -5.577280  23.350600  13.202600   0.093682   1.003780  25.261700   5.609530  -9.538100  17.484200   0.000000   0.000000  -0.000000   5.730310   5.474010   7.737890  -9.878470  16.869300   6.167040   7.961790  -3.961670  22.696000   0.000000   0.000000   0.000000
  8.492620  88.878700   2.457590 -17.528200 -10.105100 -46.910200  -0.945367  11.085900  -4.390390  -1.034090  22.211400  -8.845630   4.874150   2.368160  -0.201818   8.045810   4.697060  25.483400  -0.201673   0.840876   3.096730 -67.205900  22.405200  -7.987430  -1.692650  -2.929500 -19.070900  12.602500  -5.088430   3.283530  44.008400  40.826900 -68.784200 -33.106600   0.000000   0.000074 -11.553400   0.001983   0.000000 -33.295900   5.549940  -8.377010 -27.574600   0.028416   0.001566 -19.302300   0.012069   0.008035 -28.581800  -3.080730   5.631920 -40.000400   0.001665   0.001968 -26.640300  -0.005588   0.001045 -28.634700  -3.085760   5.629180 -41.989500  -0.005766   0.001512 -27.965000  -0.004582   0.001144 -35.742000  -3.758930   5.204870 -53.869100  -0.003610   0.001744 -35.876800  -0.002551  -0.001466   6.718990  -1.595890   3.718220  29.544100 -33.417100  -8.903550 -20.777500 -25.328300   0.001953 -68.760700 -79.609300 -55.035400 -45.763800  29.232700  63.409200  11.233500  -0.003387  -0.004457   0.616774  -0.003103  -0.000993   6.646940   1.818890  15.239400   5.637570  -0.004377   0.000926   3.946310   0.000448   0.000503   7.420970   1.579720  11.949600   7.586320  -0.003213   0.002672   5.052500  -0.002455   0.003509   4.868950   0.844782   9.818790   4.941550  -0.001931   0.002438   3.291050  -0.004118   0.001648   8.385110   1.161110   7.828430  12.696900  -0.001459   0.002160   8.456120   0.006975   0.002321  -5.538200  23.310600  13.194500   0.105520   0.981445  25.261500   5.605020  -9.520700  17.364600   0.000000   0.000000   0.000000   5.754620   5.475350   7.741720  -9.869270  16.831700   6.087700   7.954750  -3.967530  22.638400   0.000000   0.000000   0.000000
  8.544760  88.890300   2.469330 -17.519900 -10.072200 -46.769300  -0.907967  11.057200  -4.384560  -0.960197  22.151100  -8.841950   4.784710   2.296670  -0.192125   7.895620   4.559190  26.146500  -0.198696   0.846897   3.149140 -67.205400  22.336400  -7.947190  -1.678450  -2.912250 -19.087600  12.623300  -5.179870   3.285070  44.023200  40.862400 -68.951400 -33.114000   0.000000   0.000076 -11.557000   0.001941   0.000000 -33.382100   5.605470  -8.432350 -27.650800   0.029137   0.001557 -19.355600   0.011783   0.015955 -28.584800  -3.065830   5.603080 -40.164100   0.001667   0.001976 -26.749300  -0.005585   0.001032 -28.637500  -3.070440   5.600590 -42.164000  -0.005737   0.001505 -28.081300  -0.004580   0.001159 -35.848900  -3.749550   5.171470 -54.027200  -0.003607   0.001752 -35.982100  -0.002548  -0.001488   6.709210  -1.578100   3.734430  29.572000 -33.292900  -8.962450 -20.826000 -25.414400   0.001954 -68.794900 -79.663400 -55.090000 -45.756600  29.234500  63.413200  11.209900  -0.003681  -0.004355   0.604977  -0.003250  -0.000976   6.816530   1.875970  15.319000   5.783640  -0.004684   0.000962   4.048540   0.000388   0.000526   7.617730   1.635040  12.044700   7.790270  -0.003335   0.002827   5.188340  -0.002495   0.003622   4.992210   0.875319   9.922210   5.068220  -0.002080   0.002612   3.375410  -0.004061   0.001775   8.605740   1.225640   8.046250  13.037900  -0.001423   0.002335   8.683220   0.007011   0.002481  -5.497170  23.269300  13.189800   0.117361   0.959112  25.261200   5.588630  -9.507240  17.222500   0.000000   0.000000   0.000000   5.768670   5.482080   7.745610  -9.848860  16.787100   5.991990   7.939930  -3.971650  22.568900   0.000000   0.000000   0.000000
